<svg xmlns="http://www.w3.org/2000/svg" viewBox="0 0 256 256" width="256" height="256" fill="none">
  <rect width="256" height="256" rx="128" fill="white"/>
  <path d="M119.681 47.738l-71.963 41.636v80.996l23.914-13.644V112.93l19.978-11.788v43.796l23.914-13.643v-41.72L71.708 124.718v15.573l71.963-41.635V47.738z" fill="#FF6F00"/>
  <path d="M136.319 48.361v40.496L208.282 90.493v39.267L232.196 128.5v-39.567L136.319 48.361z" fill="#FF6F00"/>
  <path d="M159.533 85.852v39.267l23.914-13.643V96.851l-23.914-11v-41.72L136.319 63.437v31.866l23.214 11v29.352l-23.214 11v-43.797l-23.914 13.644v41.72L159.533 128.5V85.852z" fill="#FF6F00"/>
</svg>
